<svg width="103" height="40" viewBox="0 0 103 40" fill="none" xmlns="http://www.w3.org/2000/svg">
<path d="M16.6667 21.6667H23.3334M20.0001 10V21.6667M26.6667 13.3333V10H13.3334V13.3333M6.66675 32.5V7.5C6.66675 6.39493 7.10573 5.33512 7.88714 4.55372C8.66854 3.77232 9.72835 3.33333 10.8334 3.33333H31.6667C32.1088 3.33333 32.5327 3.50893 32.8453 3.82149C33.1578 4.13405 33.3334 4.55797 33.3334 5V35C33.3334 35.442 33.1578 35.866 32.8453 36.1785C32.5327 36.4911 32.1088 36.6667 31.6667 36.6667H10.8334C9.72835 36.6667 8.66854 36.2277 7.88714 35.4463C7.10573 34.6649 6.66675 33.6051 6.66675 32.5ZM6.66675 32.5C6.66675 31.3949 7.10573 30.3351 7.88714 29.5537C8.66854 28.7723 9.72835 28.3333 10.8334 28.3333H33.3334" stroke="#09090B" stroke-width="2" stroke-linecap="round" stroke-linejoin="round"/>
<path d="M60.6523 26H53.7266V25.168C54.3359 25.1289 54.8398 25.0508 55.2383 24.9336C55.6445 24.8164 55.8477 24.6719 55.8477 24.5C55.8477 24.4297 55.8398 24.3438 55.8242 24.2422C55.8086 24.1406 55.7852 24.0508 55.7539 23.9727L54.3711 20.2461H48.5469C48.3281 20.793 48.1484 21.2695 48.0078 21.6758C47.875 22.082 47.7539 22.457 47.6445 22.8008C47.543 23.1367 47.4727 23.4102 47.4336 23.6211C47.3945 23.832 47.375 24.0039 47.375 24.1367C47.375 24.4492 47.6211 24.6914 48.1133 24.8633C48.6055 25.0352 49.1602 25.1367 49.7773 25.168V26H43.5195V25.168C43.7227 25.1523 43.9766 25.1094 44.2812 25.0391C44.5859 24.9609 44.8359 24.8594 45.0312 24.7344C45.3438 24.5234 45.5859 24.3047 45.7578 24.0781C45.9297 23.8438 46.0977 23.5234 46.2617 23.1172C47.0977 21.0312 48.0195 18.6875 49.0273 16.0859C50.0352 13.4844 50.9336 11.168 51.7227 9.13672H52.6602L58.2031 23.4805C58.3203 23.7852 58.4531 24.0312 58.6016 24.2188C58.75 24.4062 58.957 24.5898 59.2227 24.7695C59.4023 24.8789 59.6367 24.9727 59.9258 25.0508C60.2148 25.1211 60.457 25.1602 60.6523 25.168V26ZM53.9492 19.2031L51.4297 12.7578L48.957 19.2031H53.9492ZM72.8047 24.9453H70.4258V30.2773H68.1758V24.9453H60.6758V23.1406L68.8906 13.1211H70.4258V23.4102H72.8047V24.9453ZM68.1758 23.4102V15.7344L61.8477 23.4102H68.1758ZM81.6523 25.4961C81.1445 25.707 80.6641 25.8828 80.2109 26.0234C79.7578 26.1719 79.2031 26.2461 78.5469 26.2461C77.5781 26.2461 76.8945 26.0039 76.4961 25.5195C76.1055 25.0273 75.9102 24.3359 75.9102 23.4453V15.6172H73.8242V14.4922H75.957V10.8945H78.0898V14.4922H81.4062V15.6172H78.1133V22.0742C78.1133 22.5586 78.1289 22.9648 78.1602 23.293C78.1992 23.6133 78.2852 23.8945 78.418 24.1367C78.543 24.3633 78.7305 24.5352 78.9805 24.6523C79.2305 24.7695 79.5664 24.8281 79.9883 24.8281C80.1836 24.8281 80.4688 24.8125 80.8438 24.7812C81.2266 24.7422 81.4961 24.6953 81.6523 24.6406V25.4961ZM93.9453 26H88.6484V25.2266C89 25.1875 89.2969 25.1484 89.5391 25.1094C89.7891 25.0703 89.9141 24.9688 89.9141 24.8047C89.9141 24.7344 89.875 24.625 89.7969 24.4766C89.7188 24.3281 89.6406 24.1914 89.5625 24.0664C89.3672 23.7617 89.0977 23.3555 88.7539 22.8477C88.418 22.332 88.0039 21.7188 87.5117 21.0078C87.1055 21.5156 86.7305 22.0117 86.3867 22.4961C86.043 22.9727 85.6836 23.4805 85.3086 24.0195C85.2539 24.0977 85.1953 24.1953 85.1328 24.3125C85.0781 24.4297 85.0508 24.5234 85.0508 24.5938C85.0508 24.7656 85.1602 24.9102 85.3789 25.0273C85.6055 25.1367 85.9414 25.2109 86.3867 25.25V26H82.1094V25.2734C82.6406 25.1172 83.0664 24.9297 83.3867 24.7109C83.7148 24.4844 84.0156 24.207 84.2891 23.8789C84.5312 23.5664 84.8672 23.1367 85.2969 22.5898C85.7344 22.043 86.2969 21.3008 86.9844 20.3633C86.5859 19.793 86.0977 19.0977 85.5195 18.2773C84.9492 17.4492 84.4766 16.7617 84.1016 16.2148C83.8984 15.918 83.6641 15.6797 83.3984 15.5C83.1406 15.3125 82.7734 15.2188 82.2969 15.2188V14.4453H87.3242V15.2188C87.0742 15.2188 86.8281 15.2344 86.5859 15.2656C86.3438 15.2969 86.2227 15.3672 86.2227 15.4766C86.2227 15.5469 86.2461 15.625 86.293 15.7109C86.3398 15.7969 86.3984 15.8906 86.4688 15.9922C86.6406 16.2578 86.9062 16.668 87.2656 17.2227C87.6328 17.7773 88.0273 18.3633 88.4492 18.9805C88.7227 18.6055 89.0391 18.168 89.3984 17.668C89.7656 17.168 90.1016 16.6914 90.4062 16.2383C90.4375 16.1836 90.4688 16.1172 90.5 16.0391C90.5312 15.9531 90.5469 15.8711 90.5469 15.793C90.5469 15.6289 90.4102 15.5 90.1367 15.4062C89.8711 15.3047 89.6172 15.2344 89.375 15.1953V14.4453H93.6406V15.1719C93.0391 15.3281 92.5703 15.5156 92.2344 15.7344C91.8984 15.9453 91.6133 16.1914 91.3789 16.4727C91.1211 16.793 90.8125 17.1875 90.4531 17.6562C90.1016 18.125 89.6055 18.7812 88.9648 19.625C89.6758 20.625 90.2539 21.4453 90.6992 22.0859C91.1445 22.7266 91.5938 23.3867 92.0469 24.0664C92.2734 24.4102 92.5234 24.6836 92.7969 24.8867C93.0781 25.082 93.4609 25.1953 93.9453 25.2266V26ZM102.066 25.4961C101.559 25.707 101.078 25.8828 100.625 26.0234C100.172 26.1719 99.6172 26.2461 98.9609 26.2461C97.9922 26.2461 97.3086 26.0039 96.9102 25.5195C96.5195 25.0273 96.3242 24.3359 96.3242 23.4453V15.6172H94.2383V14.4922H96.3711V10.8945H98.5039V14.4922H101.82V15.6172H98.5273V22.0742C98.5273 22.5586 98.543 22.9648 98.5742 23.293C98.6133 23.6133 98.6992 23.8945 98.832 24.1367C98.957 24.3633 99.1445 24.5352 99.3945 24.6523C99.6445 24.7695 99.9805 24.8281 100.402 24.8281C100.598 24.8281 100.883 24.8125 101.258 24.7812C101.641 24.7422 101.91 24.6953 102.066 24.6406V25.4961Z" fill="black"/>
</svg>
